<?xml version="1.0" standalone="no"?>
<!DOCTYPE svg PUBLIC "-//W3C//DTD SVG 20010904//EN"
 "http://www.w3.org/TR/2001/REC-SVG-20010904/DTD/svg10.dtd">
<svg version="1.0" xmlns="http://www.w3.org/2000/svg"
 width="128.000000pt" height="128.000000pt" viewBox="0 0 128.000000 128.000000"
 preserveAspectRatio="xMidYMid meet">
<metadata>
Created by potrace 1.14, written by Peter Selinger 2001-2017
</metadata>
<g transform="translate(0.000000,128.000000) scale(0.100000,-0.100000)"
fill="#000000" stroke="none">
<path d="M466 1238 c9 -59 14 -60 14 -5 0 26 -5 47 -10 47 -6 0 -8 -16 -4 -42z"/>
<path d="M488 1173 c-1 -82 -3 -97 -8 -63 l-7 45 -1 -57 c-2 -74 -16 -111 -40
-104 -9 3 -44 8 -77 11 -33 3 -73 8 -88 11 -27 6 -28 5 -23 -28 15 -87 36
-319 31 -328 -3 -6 -22 -10 -41 -10 -30 0 -34 3 -29 19 7 24 -4 51 -22 51 -10
0 -12 -6 -8 -21 4 -12 2 -32 -5 -45 -11 -20 -23 -24 -91 -30 l-79 -7 0 -198
c0 -192 1 -199 20 -199 11 0 20 5 20 10 0 6 9 10 20 10 11 0 20 -4 20 -10 0
-5 -7 -10 -15 -10 -8 0 -15 -4 -15 -10 0 -5 -11 -12 -25 -16 -27 -7 -36 -44
-11 -44 7 0 16 -11 18 -24 4 -19 1 -22 -14 -18 -15 3 -18 -2 -18 -27 0 -24 4
-31 19 -31 22 0 45 25 36 40 -3 5 0 13 8 16 17 6 57 -24 57 -43 0 -22 37 -33
108 -33 50 0 73 -4 82 -15 11 -13 78 -15 491 -15 l479 0 0 333 c0 310 -5 367
-26 355 -5 -3 -18 -2 -29 3 -16 6 -12 8 18 8 l37 1 0 88 c0 48 -5 94 -11 102
-8 12 -10 10 -8 -10 1 -31 -10 -70 -21 -70 -5 0 -15 -3 -24 -6 -9 -3 -16 -1
-16 5 0 6 6 11 13 11 7 0 13 9 14 20 2 18 -4 20 -64 20 l-66 0 5 85 c4 81 6
87 39 121 35 37 97 74 124 74 12 0 15 14 15 70 l0 70 -266 0 -265 0 35 -42
c20 -24 60 -67 91 -97 33 -32 55 -62 55 -75 0 -20 -1 -20 -20 4 -11 14 -20 19
-20 12 0 -21 -40 5 -50 34 -6 14 -14 23 -19 20 -5 -3 -25 1 -45 9 -33 14 -36
19 -38 58 -1 42 -1 42 -5 6 -3 -28 -10 -38 -26 -43 -35 -9 -37 -8 -37 32 0 80
-3 82 -96 82 l-84 0 -2 -107z m552 -140 c0 -17 -6 -17 -29 3 -11 10 -17 23
-14 31 5 11 9 11 24 -3 11 -9 19 -23 19 -31z m-454 21 c-3 -9 -6 -30 -6 -48 0
-31 -2 -32 -45 -34 l-44 -2 21 38 c24 42 45 62 66 62 9 0 12 -6 8 -16z m426
-87 c1 -52 2 -52 5 -9 l4 44 20 -38 c24 -48 24 -60 -1 -67 -11 -3 -20 -13 -20
-22 0 -13 6 -15 29 -10 24 5 29 2 35 -17 10 -41 7 -48 -23 -48 -23 0 -31 5
-34 23 -2 12 -3 -24 -1 -80 2 -86 0 -103 -12 -103 -24 0 -54 19 -54 35 0 8 -8
15 -17 15 -15 1 -14 4 5 20 27 22 30 40 39 207 6 114 22 145 25 50z m-525 -39
c-3 -8 -6 -5 -6 6 -1 11 2 17 5 13 3 -3 4 -12 1 -19z m110 -78 c-15 -51 -47
-69 -47 -27 0 14 7 27 15 31 8 3 21 17 27 32 17 38 20 17 5 -36z m-97 -10 c0
-10 -6 -23 -14 -30 -8 -6 -16 -26 -18 -43 -4 -30 -4 -29 -12 13 -10 57 7 108
29 90 8 -7 15 -20 15 -30z m70 -74 c0 -2 -7 -7 -16 -10 -8 -3 -12 -2 -9 4 6
10 25 14 25 6z m29 -33 c23 -6 23 -7 6 -13 -23 -8 -55 -1 -55 11 0 11 16 11
49 2z m-39 -41 c-13 -5 -13 -39 0 -47 16 -10 12 -22 -10 -28 -27 -7 -41 20
-34 65 6 33 8 34 30 24 13 -6 19 -12 14 -14z m-304 -119 c-3 -21 -12 -71 -20
-112 -14 -70 -13 -74 5 -78 24 -7 24 -19 1 -26 -12 -2 -22 -17 -25 -37 -6 -28
-10 -31 -29 -25 -13 3 -47 7 -77 8 -62 2 -74 16 -36 41 22 15 34 16 77 7 54
-12 75 -7 56 13 -19 18 -78 28 -94 16 -8 -8 -14 -8 -19 0 -3 5 -15 10 -26 10
-12 0 -17 4 -13 11 7 11 102 7 135 -6 12 -5 19 14 33 92 20 112 23 123 32 123
4 0 4 -17 0 -37z m1009 8 c3 -6 -4 -15 -15 -21 -11 -6 -20 -18 -20 -26 0 -9
-6 -14 -12 -11 -7 2 -18 -3 -25 -12 -11 -14 -12 -12 -13 12 0 44 17 67 50 67
16 0 31 -4 35 -9z m-870 -259 c19 -13 18 -14 -9 -7 -16 3 -39 13 -50 21 -20
14 -20 15 9 8 17 -4 39 -14 50 -22z m-304 -58 c12 -14 11 -16 -5 -13 -11 2
-21 10 -24 17 -5 17 13 15 29 -4z m28 -70 c2 -2 -4 -4 -15 -4 -10 0 -30 -3
-44 -7 -22 -6 -24 -5 -11 10 12 15 53 15 70 1z"/>
<path d="M1248 933 c7 -3 16 -2 19 1 4 3 -2 6 -13 5 -11 0 -14 -3 -6 -6z"/>
<path d="M148 758 c3 -18 7 -27 9 -20 3 6 11 12 19 12 26 0 11 33 -17 38 -12
2 -15 -5 -11 -30z"/>
<path d="M8 633 c7 -3 16 -2 19 1 4 3 -2 6 -13 5 -11 0 -14 -3 -6 -6z"/>
</g>
</svg>
